<svg width="12" height="12" viewBox="0 0 12 12" fill="none" xmlns="http://www.w3.org/2000/svg">
<path d="M4.36806 8.29448L7.2808 8.3034C7.46243 8.30403 7.60945 8.45612 7.60945 8.64257V10.2812C7.60945 10.4683 7.5032 10.6376 7.33764 10.7158L4.69362 11.9574C4.63185 11.986 4.56636 12 4.50088 12C4.41378 12 4.32667 11.9745 4.25069 11.9243C4.11787 11.8365 4.03756 11.685 4.03756 11.5227V8.63367C4.03756 8.44594 4.18582 8.29385 4.36806 8.29448ZM10.7231 0C11.4286 0 12 0.588632 12 1.31535V2.23425C12 2.5868 11.8622 2.92534 11.6176 3.17225L7.71459 7.12021C7.64726 7.18894 7.55583 7.22712 7.46131 7.22649L4.19336 7.2163C4.0939 7.2163 3.99938 7.17367 3.93143 7.09921L0.34471 3.15443C0.122934 2.9107 0 2.58871 0 2.25462V1.31599C0 0.589268 0.571429 0 1.27691 0H10.7231Z" fill="#333333"/>
</svg>
