<svg width="25" height="25" viewBox="0 0 25 25" fill="none" xmlns="http://www.w3.org/2000/svg">
<path d="M8.02165 8.00834C9.20675 6.82508 10.8141 6.1603 12.4902 6.1603C14.1662 6.1603 15.7736 6.82508 16.9587 8.00834C18.1438 9.19159 18.8095 10.7964 18.8095 12.4697C18.8095 14.143 18.1438 15.7478 16.9587 16.9311C15.7736 18.1143 14.1662 18.7791 12.4902 18.7791C10.8141 18.7791 9.20675 18.1143 8.02165 16.9311C6.83655 15.7478 6.1708 14.143 6.1708 12.4697C6.1708 10.7964 6.83655 9.19159 8.02165 8.00834ZM9.47062 15.4834C10.2715 16.283 11.3576 16.7322 12.4902 16.7322C13.6227 16.7322 14.7089 16.283 15.5097 15.4834C16.3106 14.6838 16.7605 13.5992 16.7605 12.4683C16.7605 11.3374 16.3106 10.2529 15.5097 9.45324C14.7089 8.65362 13.6227 8.20443 12.4902 8.20443C11.3576 8.20443 10.2715 8.65362 9.47062 9.45324C8.66975 10.2529 8.2198 11.3374 8.2198 12.4683C8.2198 13.5992 8.66975 14.6838 9.47062 15.4834Z" fill="#DCAB96" stroke="#DCAB96" stroke-width="0.2"/>
<path d="M20.5601 5.82431C20.5601 6.59418 19.935 7.21855 19.1635 7.21855C18.3921 7.21855 17.767 6.59418 17.767 5.82431C17.767 5.05444 18.3921 4.43008 19.1635 4.43008C19.935 4.43008 20.5601 5.05444 20.5601 5.82431Z" fill="#DCAB96" stroke="#DCAB96" stroke-width="0.2"/>
<path d="M17.6434 0.174755L17.6434 0.174782L17.6457 0.174829C18.6715 0.195859 19.6863 0.390506 20.6469 0.75048C21.4638 1.06604 22.2057 1.5484 22.8252 2.16667C23.4447 2.78494 23.928 3.52552 24.2444 4.341C24.6108 5.31318 24.8063 6.34123 24.8223 7.37984L24.8222 7.37984L24.8224 7.38415C24.9 8.70721 24.9 9.13388 24.9 12.5208C24.9 15.9064 24.882 16.3275 24.8224 17.6588L24.8223 17.6588L24.8223 17.6613C24.8017 18.6866 24.6081 19.6982 24.2471 20.6577C23.9304 21.473 23.4469 22.2136 22.8275 22.832C22.208 23.4505 21.4663 23.9332 20.6496 24.2496C19.6889 24.6088 18.6741 24.803 17.6485 24.8238L17.6485 24.8237L17.6447 24.8239C16.3223 24.9 15.8908 24.9 12.5 24.9C9.11057 24.9 8.68874 24.882 7.35386 24.8239L7.35279 24.8238C6.32485 24.7901 5.31021 24.5814 4.35256 24.2069L4.35218 24.2067C3.53504 23.891 2.79287 23.4085 2.17308 22.7901C1.55342 22.1719 1.06971 21.4314 0.752843 20.6161C0.391856 19.6552 0.198317 18.6436 0.177723 17.6183L0.177797 17.6183L0.177572 17.6145C0.100031 16.2914 0.1 15.8633 0.1 12.4778C0.1 9.09226 0.118041 8.67115 0.177643 7.3398L0.177675 7.3398L0.177724 7.33729C0.197787 6.31316 0.392274 5.29991 0.752856 4.34094C1.06883 3.52527 1.55206 2.78452 2.17156 2.16621C2.79109 1.54788 3.53322 1.06565 4.35037 0.750462C5.30966 0.389464 6.3237 0.194785 7.34868 0.174831L7.34868 0.174899L7.35237 0.174691C8.67484 0.100029 9.10645 0.1 12.4972 0.1C15.8867 0.1 16.3085 0.116629 17.6434 0.174755ZM22.3089 19.8921C22.5781 19.1632 22.7253 18.3953 22.745 17.6191H22.7577L22.762 17.5236C22.8218 16.1962 22.8218 15.8306 22.8218 12.4572V12.4543C22.8218 9.07694 22.8066 8.70415 22.7468 7.38494C22.7336 6.58432 22.5856 5.79164 22.309 5.04003L22.3084 5.03848C22.0947 4.48637 21.7678 3.98496 21.3487 3.56645C20.9295 3.14793 20.4273 2.82155 19.8744 2.60824L19.8732 2.6078C19.1209 2.32832 18.326 2.18039 17.5234 2.17049C16.18 2.09422 15.8284 2.09422 12.4508 2.09422H12.4472C9.06467 2.09422 8.69129 2.11085 7.37015 2.17049C6.56805 2.18186 5.77375 2.32973 5.02142 2.60774L5.02142 2.60774L5.02039 2.60813C3.89874 3.03679 3.01008 3.91831 2.57639 5.03847L2.57638 5.03846L2.57584 5.03992C2.29538 5.79906 2.14727 6.60057 2.13793 7.40965C2.06432 8.75374 2.06432 9.10329 2.06432 12.4757V12.4792C2.06432 15.8551 2.07819 16.2293 2.13793 17.5472C2.1512 18.3478 2.29922 19.1405 2.5758 19.892L2.57579 19.892L2.57641 19.8937C2.79088 20.4468 3.11924 20.9488 3.54025 21.3672C3.96126 21.7856 4.46554 22.1111 5.02047 22.3226L5.02126 22.3229C5.77311 22.6022 6.56752 22.7501 7.36965 22.7602C8.71451 22.8365 9.06473 22.8365 12.4437 22.8365H12.4472C15.8283 22.8365 16.2032 22.8212 17.523 22.7602C18.3256 22.7497 19.1206 22.6018 19.8732 22.3229L19.8743 22.3225C20.4273 22.1096 20.9296 21.7836 21.3488 21.3652C21.768 20.9469 22.0949 20.4456 22.3084 19.8936L22.3089 19.8921Z" fill="#DCAB96" stroke="#DCAB96" stroke-width="0.2"/>
</svg>
