<svg width="27" height="25" viewBox="0 0 27 25" fill="none" xmlns="http://www.w3.org/2000/svg">
<path fill-rule="evenodd" clip-rule="evenodd" d="M7.52274 21.6877C8.43621 21.6877 9.17952 22.4297 9.17952 23.3432C9.17952 24.2567 8.43621 25 7.52274 25C6.60927 25 5.86723 24.2567 5.86723 23.3432C5.86723 22.4297 6.60927 21.6877 7.52274 21.6877ZM21.9544 21.6877C22.8691 21.6877 23.6125 22.4297 23.6125 23.3432C23.6125 24.2567 22.8691 25 21.9544 25C21.0409 25 20.2989 24.2567 20.2989 23.3432C20.2989 22.4297 21.0409 21.6877 21.9544 21.6877ZM2.05241 0.0121374L4.7135 0.47271C5.14209 0.548193 5.46833 0.903857 5.50543 1.33884L5.80608 4.92235L6.92406 4.92284C7.10649 4.92292 7.28699 4.923 7.46558 4.92308L9.51807 4.92405C9.68168 4.92414 9.84346 4.92422 10.0034 4.9243L12.2697 4.92554C12.4121 4.92563 12.5527 4.92571 12.6917 4.92579L14.2798 4.92681C14.4056 4.92689 14.5299 4.92698 14.6525 4.92706L16.0493 4.92809C16.1596 4.92818 16.2684 4.92826 16.3757 4.92835L17.5936 4.9294C17.6894 4.92949 17.7838 4.92957 17.8768 4.92966L18.6772 4.93046C18.7622 4.93055 18.8458 4.93063 18.9281 4.93072L19.8551 4.9318C19.9274 4.93189 19.9985 4.93198 20.0683 4.93207L20.851 4.93316C20.9117 4.93326 20.9713 4.93335 21.0297 4.93344L21.5272 4.93427C21.5793 4.93436 21.6304 4.93446 21.6805 4.93455L22.2346 4.93567C22.277 4.93577 22.3184 4.93586 22.359 4.93595L22.7 4.93681C22.7353 4.9369 22.7697 4.937 22.8034 4.93709L23.169 4.93825C23.1964 4.93834 23.223 4.93844 23.249 4.93854L23.4636 4.93941C23.4855 4.93951 23.5066 4.93961 23.5272 4.93971L23.7443 4.94089C23.7601 4.94099 23.7753 4.94109 23.79 4.94119L23.9083 4.94209C23.92 4.94219 23.9312 4.94229 23.942 4.94239L24.0271 4.94329C24.0354 4.9434 24.0432 4.9435 24.0507 4.9436L24.1087 4.94452C24.1141 4.94462 24.1193 4.94472 24.1242 4.94482L24.1609 4.94575C24.1642 4.94586 24.1673 4.94596 24.1702 4.94606L24.1968 4.94732C24.1984 4.94742 24.1999 4.94753 24.2013 4.94763C24.2138 4.9488 24.2156 4.94901 24.2175 4.94922C24.9301 5.05285 25.557 5.42515 25.9843 5.9983C26.4116 6.57018 26.5907 7.27511 26.4884 7.98133L25.2742 16.3714C25.0452 17.9681 23.6584 19.172 22.0464 19.172H8.0744C6.38947 19.172 4.96298 17.8568 4.82608 16.1744L3.65418 2.23696L1.72618 1.90432C1.20291 1.81221 0.853646 1.31709 0.943202 0.793832C1.03532 0.27057 1.54067 -0.0697422 2.05241 0.0121374ZM6.66739 6.84184L5.96728 6.84141L6.73874 16.017C6.79503 16.7232 7.37203 17.2529 8.07696 17.2529H22.0438C22.7104 17.2529 23.2797 16.7565 23.3744 16.0976L24.5898 7.70626C24.6179 7.50668 24.568 7.3071 24.4465 7.1459C24.3262 6.98342 24.1497 6.87851 23.9501 6.85036C23.9409 6.85072 23.9188 6.85104 23.8844 6.85133L23.7453 6.85213C23.7162 6.85225 23.6842 6.85236 23.6493 6.85246L22.9245 6.85357C22.8634 6.85361 22.7998 6.85365 22.7339 6.85368L21.0298 6.85361C20.9347 6.85357 20.8378 6.85353 20.7392 6.85349L18.7944 6.85231C18.6779 6.85222 18.5601 6.85213 18.4412 6.85204L17.3407 6.85116C17.2154 6.85106 17.0891 6.85095 16.9619 6.85084L15.7963 6.84982C15.6647 6.8497 15.5324 6.84958 15.3996 6.84946L14.5967 6.84872C14.462 6.8486 14.3269 6.84847 14.1914 6.84834L12.9662 6.8472C12.8296 6.84707 12.6929 6.84694 12.5562 6.84682L11.7365 6.84605C11.6001 6.84593 11.4639 6.8458 11.3279 6.84568L10.5152 6.84494C10.3805 6.84482 10.2461 6.8447 10.1122 6.84458L8.9217 6.84356C8.7913 6.84345 8.6616 6.84334 8.53269 6.84324L7.02825 6.84209C6.90684 6.84201 6.78653 6.84192 6.66739 6.84184ZM19.989 9.65129C20.5187 9.65129 20.9486 10.0812 20.9486 10.6108C20.9486 11.1405 20.5187 11.5703 19.989 11.5703H16.4426C15.9117 11.5703 15.4831 11.1405 15.4831 10.6108C15.4831 10.0812 15.9117 9.65129 16.4426 9.65129H19.989Z" fill="#DCAB96"/>
</svg>
