<svg width="28" height="25" viewBox="0 0 28 25" fill="none" xmlns="http://www.w3.org/2000/svg">
<path fill-rule="evenodd" clip-rule="evenodd" d="M14.0538 1.33213C11.9693 0.0142533 9.20025 -0.349829 6.80808 0.416794C1.60453 2.0949 -0.0107594 7.76765 1.43403 12.2815C3.66339 19.3708 13.1846 24.659 13.5885 24.8808C13.732 24.9603 13.891 25 14.05 25C14.2089 25 14.3666 24.9615 14.5102 24.8833C14.9115 24.6641 24.3635 19.4542 26.6672 12.2828C26.6685 12.2828 26.6685 12.2815 26.6685 12.2815C28.1146 7.76637 26.5044 2.09234 21.306 0.416794C18.8651 -0.372904 16.205 -0.0254881 14.0538 1.33213ZM20.7163 2.24746C24.9224 3.60379 25.9788 8.12789 24.8365 11.6956C23.0392 17.2876 15.9383 21.8092 14.0513 22.9283C12.1578 21.7976 5.00562 17.2261 3.26597 11.7008C2.12373 8.12917 3.18393 3.60507 7.39651 2.24746C9.43742 1.59237 11.818 1.99106 13.4615 3.26278C13.8051 3.52687 14.282 3.532 14.6281 3.27048C16.3691 1.96158 18.6433 1.57827 20.7163 2.24746ZM8.62721 4.79334C6.87987 5.35869 5.65558 6.90604 5.50559 8.73542C5.46328 9.26488 5.85685 9.72895 6.38631 9.77126C6.41323 9.77382 6.43887 9.7751 6.46579 9.7751C6.96192 9.7751 7.38241 9.39436 7.42343 8.89182C7.50804 7.83804 8.21313 6.94834 9.21692 6.624C9.7233 6.45991 10.0002 5.91763 9.83739 5.41382C9.67202 4.90872 9.13487 4.63437 8.62721 4.79334Z" fill="#868686"/>
</svg>
