<svg width="25" height="25" viewBox="0 0 25 25" fill="none" xmlns="http://www.w3.org/2000/svg">
<path fill-rule="evenodd" clip-rule="evenodd" d="M12.0148 0C18.6396 0 24.0283 5.26984 24.0283 11.7486C24.0283 14.8052 22.8288 17.593 20.866 19.6853L24.7283 23.4545C25.0898 23.808 25.091 24.3799 24.7295 24.7334C24.5494 24.9119 24.3113 25 24.0744 25C23.8388 25 23.6019 24.9119 23.4206 24.7358L19.5116 20.9237C17.4554 22.5342 14.8481 23.4983 12.0148 23.4983C5.38993 23.4983 0 18.2273 0 11.7486C0 5.26984 5.38993 0 12.0148 0ZM12.0148 1.8097C6.41018 1.8097 1.85051 6.26758 1.85051 11.7486C1.85051 17.2295 6.41018 21.6886 12.0148 21.6886C17.6181 21.6886 22.1778 17.2295 22.1778 11.7486C22.1778 6.26758 17.6181 1.8097 12.0148 1.8097Z" fill="#868686"/>
</svg>
